{
  "accessors": [
    {
      "bufferView": 2,
      "componentType": 5126,
      "count": 65532,
      "max": [
        1.0349096059799194,
        700.5278930664063,
        13.566320419311523
      ],
      "min": [
        -1.0349096059799194,
        -654.669677734375,
        -13.701578140258789
      ],
      "type": "VEC3"
    },
    {
      "bufferView": 2,
      "byteOffset": 786384,
      "componentType": 5126,
      "count": 65532,
      "max": [
        1.0,
        1.0,
        1.0
      ],
      "min": [
        -1.0,
        -1.0,
        -1.0
      ],
      "type": "VEC3"
    },
    {
      "bufferView": 1,
      "componentType": 5126,
      "count": 65532,
      "max": [
        1.0,
        1.0
      ],
      "min": [
        0.0,
        0.0
      ],
      "type": "VEC2"
    },
    {
      "bufferView": 0,
      "componentType": 5125,
      "count": 104319,
      "type": "SCALAR"
    },
    {
      "bufferView": 2,
      "byteOffset": 1572768,
      "componentType": 5126,
      "count": 17172,
      "max": [
        1.0349096059799194,
        375.44683837890625,
        13.566320419311523
      ],
      "min": [
        -1.0349096059799194,
        -165.57427978515625,
        -13.701578140258789
      ],
      "type": "VEC3"
    },
    {
      "bufferView": 2,
      "byteOffset": 1778832,
      "componentType": 5126,
      "count": 17172,
      "max": [
        1.0,
        1.0,
        1.0
      ],
      "min": [
        -1.0,
        -1.0,
        -1.0
      ],
      "type": "VEC3"
    },
    {
      "bufferView": 1,
      "byteOffset": 524256,
      "componentType": 5126,
      "count": 17172,
      "max": [
        1.0,
        1.0
      ],
      "min": [
        0.0,
        0.0
      ],
      "type": "VEC2"
    },
    {
      "bufferView": 0,
      "byteOffset": 417276,
      "componentType": 5125,
      "count": 27291,
      "type": "SCALAR"
    },
    {
      "bufferView": 2,
      "byteOffset": 1984896,
      "componentType": 5126,
      "count": 65533,
      "max": [
        30.071533203125,
        754.9273681640625,
        32.15799331665039
      ],
      "min": [
        0.6990103721618652,
        -683.2791748046875,
        -33.27847671508789
      ],
      "type": "VEC3"
    },
    {
      "bufferView": 2,
      "byteOffset": 2771292,
      "componentType": 5126,
      "count": 65533,
      "max": [
        1.0,
        1.0,
        1.0
      ],
      "min": [
        -1.0,
        -1.0,
        -1.0
      ],
      "type": "VEC3"
    },
    {
      "bufferView": 1,
      "byteOffset": 661632,
      "componentType": 5126,
      "count": 65533,
      "max": [
        1.0,
        1.0
      ],
      "min": [
        0.0,
        0.0
      ],
      "type": "VEC2"
    },
    {
      "bufferView": 0,
      "byteOffset": 526440,
      "componentType": 5125,
      "count": 127161,
      "type": "SCALAR"
    },
    {
      "bufferView": 2,
      "byteOffset": 3557688,
      "componentType": 5126,
      "count": 65532,
      "max": [
        30.071533203125,
        754.92724609375,
        32.87513732910156
      ],
      "min": [
        1.012080192565918,
        -683.2792358398438,
        -33.27849197387695
      ],
      "type": "VEC3"
    },
    {
      "bufferView": 2,
      "byteOffset": 4344072,
      "componentType": 5126,
      "count": 65532,
      "max": [
        1.0,
        1.0,
        1.0
      ],
      "min": [
        -1.0,
        -1.0,
        -1.0
      ],
      "type": "VEC3"
    },
    {
      "bufferView": 1,
      "byteOffset": 1185896,
      "componentType": 5126,
      "count": 65532,
      "max": [
        1.0,
        1.0
      ],
      "min": [
        0.0,
        0.0
      ],
      "type": "VEC2"
    },
    {
      "bufferView": 0,
      "byteOffset": 1035084,
      "componentType": 5125,
      "count": 137655,
      "type": "SCALAR"
    },
    {
      "bufferView": 2,
      "byteOffset": 5130456,
      "componentType": 5126,
      "count": 10625,
      "max": [
        29.758464813232422,
        275.5249938964844,
        -30.956390380859375
      ],
      "min": [
        1.02225923538208,
        -683.2792358398438,
        -33.27849197387695
      ],
      "type": "VEC3"
    },
    {
      "bufferView": 2,
      "byteOffset": 5257956,
      "componentType": 5126,
      "count": 10625,
      "max": [
        1.0,
        1.0,
        0.9816786646842957
      ],
      "min": [
        -1.0,
        -1.0,
        -1.0
      ],
      "type": "VEC3"
    },
    {
      "bufferView": 1,
      "byteOffset": 1710152,
      "componentType": 5126,
      "count": 10625,
      "max": [
        1.0,
        1.0
      ],
      "min": [
        0.0,
        0.0
      ],
      "type": "VEC2"
    },
    {
      "bufferView": 0,
      "byteOffset": 1585704,
      "componentType": 5125,
      "count": 20736,
      "type": "SCALAR"
    },
    {
      "bufferView": 2,
      "byteOffset": 5385456,
      "componentType": 5126,
      "count": 2304,
      "max": [
        29.040359497070313,
        723.58447265625,
        30.553085327148438
      ],
      "min": [
        1.7301859855651855,
        -634.5696411132813,
        -30.956443786621094
      ],
      "type": "VEC3"
    },
    {
      "bufferView": 2,
      "byteOffset": 5413104,
      "componentType": 5126,
      "count": 2304,
      "max": [
        1.0,
        1.996648819613256e-07,
        1.0
      ],
      "min": [
        -1.0,
        -9.983260440549202e-08,
        -1.0
      ],
      "type": "VEC3"
    },
    {
      "bufferView": 1,
      "byteOffset": 1795152,
      "componentType": 5126,
      "count": 2304,
      "max": [
        0.918218731880188,
        0.9346208572387695
      ],
      "min": [
        0.08400043100118637,
        0.10160486400127411
      ],
      "type": "VEC2"
    },
    {
      "bufferView": 0,
      "byteOffset": 1668648,
      "componentType": 5125,
      "count": 3456,
      "type": "SCALAR"
    },
    {
      "bufferView": 2,
      "byteOffset": 5440752,
      "componentType": 5126,
      "count": 130,
      "max": [
        30.244522094726563,
        754.5532836914063,
        33.223480224609375
      ],
      "min": [
        0.41551244258880615,
        -682.8831176757813,
        -33.61272430419922
      ],
      "type": "VEC3"
    },
    {
      "bufferView": 2,
      "byteOffset": 5442312,
      "componentType": 5126,
      "count": 130,
      "max": [
        1.0,
        1.0,
        1.0
      ],
      "min": [
        -1.0,
        -1.0,
        -1.0
      ],
      "type": "VEC3"
    },
    {
      "bufferView": 1,
      "byteOffset": 1813584,
      "componentType": 5126,
      "count": 130,
      "max": [
        0.5190446376800537,
        0.9796720743179321
      ],
      "min": [
        0.4932127892971039,
        0.023617470636963844
      ],
      "type": "VEC2"
    },
    {
      "bufferView": 0,
      "byteOffset": 1682472,
      "componentType": 5125,
      "count": 240,
      "type": "SCALAR"
    },
    {
      "bufferView": 2,
      "byteOffset": 5443872,
      "componentType": 5126,
      "count": 48,
      "max": [
        31.356678009033203,
        804.7879638671875,
        35.54167175292969
      ],
      "min": [
        -0.7975349426269531,
        -735.9227294921875,
        -36.86473083496094
      ],
      "type": "VEC3"
    },
    {
      "bufferView": 2,
      "byteOffset": 5444448,
      "componentType": 5126,
      "count": 48,
      "max": [
        1.0,
        1.0,
        1.0
      ],
      "min": [
        -1.0,
        -1.0,
        -1.0
      ],
      "type": "VEC3"
    },
    {
      "bufferView": 1,
      "byteOffset": 1814624,
      "componentType": 5126,
      "count": 48,
      "max": [
        0.9923359155654907,
        0.9472218155860901
      ],
      "min": [
        0.9408437609672546,
        0.04128888249397278
      ],
      "type": "VEC2"
    },
    {
      "bufferView": 0,
      "byteOffset": 1683432,
      "componentType": 5125,
      "count": 72,
      "type": "SCALAR"
    }
  ],
  "asset": {
    "extras": {
      "author": "Shalmon (https://sketchfab.com/nashalanandas)",
      "license": "CC-BY-4.0 (http://creativecommons.org/licenses/by/4.0/)",
      "source": "https://sketchfab.com/3d-models/building-02-e22ece3fd35c4bd4a3d90321c1b2a806",
      "title": "Building 02"
    },
    "generator": "Sketchfab-12.66.0",
    "version": "2.0"
  },
  "bufferViews": [
    {
      "buffer": 0,
      "byteLength": 1683720,
      "name": "floatBufferViews",
      "target": 34963
    },
    {
      "buffer": 0,
      "byteLength": 1815008,
      "byteOffset": 1683720,
      "byteStride": 8,
      "name": "floatBufferViews",
      "target": 34962
    },
    {
      "buffer": 0,
      "byteLength": 5445024,
      "byteOffset": 3498728,
      "byteStride": 12,
      "name": "floatBufferViews",
      "target": 34962
    }
  ],
  "buffers": [
    {
      "byteLength": 8943752,
      "uri": "scene.bin"
    }
  ],
  "extensionsUsed": [
    "KHR_texture_transform"
  ],
  "images": [
    {
      "uri": "textures/buildin2_baseColor.png"
    }
  ],
  "materials": [
    {
      "doubleSided": true,
      "name": "Material.001",
      "pbrMetallicRoughness": {
        "baseColorFactor": [
          0.0,
          0.0,
          0.0,
          1.0
        ],
        "metallicFactor": 0.0,
        "roughnessFactor": 0.5
      }
    },
    {
      "doubleSided": true,
      "name": "buildin2",
      "pbrMetallicRoughness": {
        "baseColorTexture": {
          "index": 0
        },
        "metallicFactor": 0.0,
        "roughnessFactor": 0.5
      }
    },
    {
      "doubleSided": true,
      "name": "window",
      "pbrMetallicRoughness": {
        "baseColorTexture": {
          "index": 0
        },
        "metallicFactor": 0.0,
        "roughnessFactor": 0.0
      }
    },
    {
      "doubleSided": true,
      "name": "buildin2.001",
      "pbrMetallicRoughness": {
        "baseColorTexture": {
          "extensions": {
            "KHR_texture_transform": {
              "offset": [
                -0.0244344,
                0.49990999999999985
              ],
              "rotation": 0.00698132,
              "scale": [
                3.5,
                3.5
              ]
            }
          },
          "index": 1
        },
        "metallicFactor": 0.0,
        "roughnessFactor": 0.5
      }
    },
    {
      "doubleSided": true,
      "name": "buildin2.002",
      "pbrMetallicRoughness": {
        "baseColorTexture": {
          "index": 1
        },
        "metallicFactor": 0.0,
        "roughnessFactor": 0.5
      }
    }
  ],
  "meshes": [
    {
      "name": "Object_0",
      "primitives": [
        {
          "attributes": {
            "NORMAL": 1,
            "POSITION": 0,
            "TEXCOORD_0": 2
          },
          "indices": 3,
          "material": 0,
          "mode": 4
        }
      ]
    },
    {
      "name": "Object_1",
      "primitives": [
        {
          "attributes": {
            "NORMAL": 5,
            "POSITION": 4,
            "TEXCOORD_0": 6
          },
          "indices": 7,
          "material": 0,
          "mode": 4
        }
      ]
    },
    {
      "name": "Object_2",
      "primitives": [
        {
          "attributes": {
            "NORMAL": 9,
            "POSITION": 8,
            "TEXCOORD_0": 10
          },
          "indices": 11,
          "material": 1,
          "mode": 4
        }
      ]
    },
    {
      "name": "Object_3",
      "primitives": [
        {
          "attributes": {
            "NORMAL": 13,
            "POSITION": 12,
            "TEXCOORD_0": 14
          },
          "indices": 15,
          "material": 1,
          "mode": 4
        }
      ]
    },
    {
      "name": "Object_4",
      "primitives": [
        {
          "attributes": {
            "NORMAL": 17,
            "POSITION": 16,
            "TEXCOORD_0": 18
          },
          "indices": 19,
          "material": 1,
          "mode": 4
        }
      ]
    },
    {
      "name": "Object_5",
      "primitives": [
        {
          "attributes": {
            "NORMAL": 21,
            "POSITION": 20,
            "TEXCOORD_0": 22
          },
          "indices": 23,
          "material": 2,
          "mode": 4
        }
      ]
    },
    {
      "name": "Object_6",
      "primitives": [
        {
          "attributes": {
            "NORMAL": 25,
            "POSITION": 24,
            "TEXCOORD_0": 26
          },
          "indices": 27,
          "material": 3,
          "mode": 4
        }
      ]
    },
    {
      "name": "Object_7",
      "primitives": [
        {
          "attributes": {
            "NORMAL": 29,
            "POSITION": 28,
            "TEXCOORD_0": 30
          },
          "indices": 31,
          "material": 4,
          "mode": 4
        }
      ]
    }
  ],
  "nodes": [
    {
      "children": [
        1
      ],
      "matrix": [
        1.0,
        0.0,
        0.0,
        0.0,
        0.0,
        2.220446049250313e-16,
        -1.0,
        0.0,
        0.0,
        1.0,
        2.220446049250313e-16,
        0.0,
        0.0,
        0.0,
        0.0,
        1.0
      ],
      "name": "Sketchfab_model"
    },
    {
      "children": [
        2
      ],
      "name": "root"
    },
    {
      "children": [
        3
      ],
      "matrix": [
        1.0,
        0.0,
        0.0,
        0.0,
        0.0,
        2.220446049250313e-16,
        1.0,
        0.0,
        0.0,
        -1.0,
        2.220446049250313e-16,
        0.0,
        0.0,
        0.0,
        0.0,
        1.0
      ],
      "name": "GLTF_SceneRootNode"
    },
    {
      "children": [
        4,
        5,
        6,
        7,
        8,
        9,
        10,
        11
      ],
      "matrix": [
        0.0,
        0.0,
        -0.06654008477926254,
        0.0,
        0.0,
        0.0020859315991401672,
        0.0,
        0.0,
        0.029549097642302513,
        0.0,
        0.0,
        0.0,
        -0.9498069882392883,
        0.9252736568450928,
        0.5453713536262512,
        1.0
      ],
      "name": "Cube.004_0"
    },
    {
      "mesh": 0,
      "name": "Object_4"
    },
    {
      "mesh": 1,
      "name": "Object_5"
    },
    {
      "mesh": 2,
      "name": "Object_6"
    },
    {
      "mesh": 3,
      "name": "Object_7"
    },
    {
      "mesh": 4,
      "name": "Object_8"
    },
    {
      "mesh": 5,
      "name": "Object_9"
    },
    {
      "mesh": 6,
      "name": "Object_10"
    },
    {
      "mesh": 7,
      "name": "Object_11"
    }
  ],
  "samplers": [
    {
      "magFilter": 9729,
      "minFilter": 9987,
      "wrapS": 33071,
      "wrapT": 33071
    },
    {
      "magFilter": 9729,
      "minFilter": 9987,
      "wrapS": 10497,
      "wrapT": 10497
    }
  ],
  "scene": 0,
  "scenes": [
    {
      "name": "Sketchfab_Scene",
      "nodes": [
        0
      ]
    }
  ],
  "textures": [
    {
      "sampler": 0,
      "source": 0
    },
    {
      "sampler": 1,
      "source": 0
    }
  ]
}
